<mxfile host="app.diagrams.net" agent="Mozilla/5.0 (Windows NT 10.0; Win64; x64) AppleWebKit/537.36 (KHTML, like Gecko) Chrome/128.0.0.0 Safari/537.36" version="24.7.10">
  <diagram name="Page-1" id="e7e014a7-5840-1c2e-5031-d8a46d1fe8dd">
    <mxGraphModel dx="-67" dy="1670" grid="1" gridSize="10" guides="1" tooltips="1" connect="1" arrows="1" fold="1" page="1" pageScale="1" pageWidth="1169" pageHeight="826" background="none" math="0" shadow="0">
      <root>
        <mxCell id="0" />
        <mxCell id="1" parent="0" />
        <mxCell id="kZQ03gNKZHDd4sTlV5Zk-258" value="Chủ nhà" style="swimlane;whiteSpace=wrap" parent="1" vertex="1">
          <mxGeometry x="4310" y="110" width="281" height="280" as="geometry" />
        </mxCell>
        <mxCell id="kZQ03gNKZHDd4sTlV5Zk-259" value="Gửi báo cáo" style="rounded=1;whiteSpace=wrap;html=1;arcSize=40;fontColor=#000000;fillColor=#ffffc0;strokeColor=#ff0000;" parent="kZQ03gNKZHDd4sTlV5Zk-258" vertex="1">
          <mxGeometry x="70" y="160" width="120" height="40" as="geometry" />
        </mxCell>
        <mxCell id="kZQ03gNKZHDd4sTlV5Zk-260" value="" style="ellipse;shape=endState;fillColor=#000000;strokeColor=#ff0000" parent="kZQ03gNKZHDd4sTlV5Zk-258" vertex="1">
          <mxGeometry x="115" y="230.51" width="30" height="32" as="geometry" />
        </mxCell>
        <mxCell id="kZQ03gNKZHDd4sTlV5Zk-261" value="" style="edgeStyle=orthogonalEdgeStyle;html=1;verticalAlign=bottom;endArrow=open;endSize=8;strokeColor=#ff0000;rounded=0;entryX=0.5;entryY=0;entryDx=0;entryDy=0;exitX=0.5;exitY=1;exitDx=0;exitDy=0;" parent="kZQ03gNKZHDd4sTlV5Zk-258" source="kZQ03gNKZHDd4sTlV5Zk-259" target="kZQ03gNKZHDd4sTlV5Zk-260" edge="1">
          <mxGeometry relative="1" as="geometry">
            <mxPoint x="130" y="303.51" as="targetPoint" />
            <Array as="points" />
            <mxPoint x="125" y="200" as="sourcePoint" />
          </mxGeometry>
        </mxCell>
        <mxCell id="kZQ03gNKZHDd4sTlV5Zk-262" value="Hệ thống" style="swimlane;whiteSpace=wrap" parent="1" vertex="1">
          <mxGeometry x="4590" y="110" width="281" height="280" as="geometry" />
        </mxCell>
        <mxCell id="kZQ03gNKZHDd4sTlV5Zk-263" value="Tổng hợp báo cáo" style="rounded=1;whiteSpace=wrap;html=1;arcSize=40;fontColor=#000000;fillColor=#ffffc0;strokeColor=#ff0000;" parent="kZQ03gNKZHDd4sTlV5Zk-262" vertex="1">
          <mxGeometry x="68" y="100" width="120" height="40" as="geometry" />
        </mxCell>
        <mxCell id="kZQ03gNKZHDd4sTlV5Zk-264" value="" style="ellipse;shape=startState;fillColor=#000000;strokeColor=#ff0000;" parent="kZQ03gNKZHDd4sTlV5Zk-262" vertex="1">
          <mxGeometry x="113" y="40" width="30" height="30" as="geometry" />
        </mxCell>
        <mxCell id="kZQ03gNKZHDd4sTlV5Zk-265" value="" style="edgeStyle=orthogonalEdgeStyle;html=1;verticalAlign=bottom;endArrow=open;endSize=8;strokeColor=#ff0000;rounded=0;entryX=0.5;entryY=0;entryDx=0;entryDy=0;exitX=0.488;exitY=0.86;exitDx=0;exitDy=0;exitPerimeter=0;" parent="kZQ03gNKZHDd4sTlV5Zk-262" source="kZQ03gNKZHDd4sTlV5Zk-264" target="kZQ03gNKZHDd4sTlV5Zk-263" edge="1">
          <mxGeometry relative="1" as="geometry">
            <mxPoint x="-80" y="161" as="targetPoint" />
            <Array as="points" />
            <mxPoint x="-80" y="70" as="sourcePoint" />
          </mxGeometry>
        </mxCell>
        <mxCell id="kZQ03gNKZHDd4sTlV5Zk-266" value="" style="edgeStyle=orthogonalEdgeStyle;html=1;verticalAlign=bottom;endArrow=open;endSize=8;strokeColor=#ff0000;rounded=0;exitX=0;exitY=0.5;exitDx=0;exitDy=0;entryX=0.5;entryY=0;entryDx=0;entryDy=0;" parent="1" source="kZQ03gNKZHDd4sTlV5Zk-263" target="kZQ03gNKZHDd4sTlV5Zk-259" edge="1">
          <mxGeometry relative="1" as="geometry">
            <mxPoint x="4440" y="230" as="targetPoint" />
            <Array as="points" />
            <mxPoint x="4480" y="200" as="sourcePoint" />
          </mxGeometry>
        </mxCell>
      </root>
    </mxGraphModel>
  </diagram>
</mxfile>
